<svg id="Capa_1" data-name="Capa 1" xmlns="http://www.w3.org/2000/svg" xmlns:xlink="http://www.w3.org/1999/xlink" viewBox="0 0 300 350"><defs><style>.cls-1{fill:url(#Degradado_sin_nombre_26);}.cls-2{fill:url(#Degradado_sin_nombre_26-2);}.cls-3{fill:#b7b7b7;}.cls-4{fill:#fff;}</style><linearGradient id="Degradado_sin_nombre_26" x1="-87" y1="263" x2="238" y2="-62" gradientTransform="matrix(-1, 0, 0, 1, 300.5, 0)" gradientUnits="userSpaceOnUse"><stop offset="0" stop-color="#f7691e"/><stop offset="1" stop-color="#fbb03b"/></linearGradient><linearGradient id="Degradado_sin_nombre_26-2" x1="-845.5" y1="398.5" x2="-520.5" y2="73.5" gradientTransform="matrix(1, 0, 0, -1, 758.5, 486)" xlink:href="#Degradado_sin_nombre_26"/></defs><title>buscayencuentra</title><polygon class="cls-1" points="300 0.5 0 0.5 300 350.5 300 0.5"/><polygon class="cls-2" points="0.5 350 300.5 350 0.5 0 0.5 350"/><polyline class="cls-3" points="94 204 94.25 262.45 206 204.03"/><path class="cls-4" d="M172.45,175.26a9.13,9.13,0,0,0-3.46-.77,3,3,0,0,1-2.45-2.22,3.08,3.08,0,0,1,1.07-3.25,3.12,3.12,0,0,1,5,2.56,1.65,1.65,0,0,0,1.78,1.58,1.62,1.62,0,0,0,1.58-1.67,7.94,7.94,0,0,0-.37-2.22,6.19,6.19,0,0,0-3.94-3.9c-.36-.13-.52-.3-.49-.69a10.41,10.41,0,0,0,0-1.25,1.71,1.71,0,0,0-1.63-1.7,1.73,1.73,0,0,0-1.76,1.62,5.06,5.06,0,0,0,0,1c.08.6-.15.86-.72,1.09a6.18,6.18,0,0,0-4.06,5.42,6.27,6.27,0,0,0,2.92,6,6.37,6.37,0,0,0,3.58,1.06,3.1,3.1,0,1,1-2.35,5.15,3.33,3.33,0,0,1-.77-2.08,1.71,1.71,0,1,0-3.41.2,6.39,6.39,0,0,0,4,5.8c.69.26.9.59.8,1.24a.86.86,0,0,0,0,.16h0c0,.27,0,.54,0,.81a1.73,1.73,0,0,0,1.72,1.56,1.7,1.7,0,0,0,1.67-1.66,12.16,12.16,0,0,0,0-1.35c0-.36.13-.5.44-.62a6,6,0,0,0,1.18-.53,6.51,6.51,0,0,0-.38-11.39Z"/><path class="cls-4" d="M121.31,140.19h15.17a1.72,1.72,0,1,0,0-3.42h-14.3c-.38,0-.76,0-1.14,0a1.7,1.7,0,0,0-1.46,2.43A1.68,1.68,0,0,0,121.31,140.19Z"/><path class="cls-4" d="M94,88V204l111.75,58.42L206,88Zm54.07,104.09H111.15c-1.53,0-2.15-.63-2.15-2.18q0-35.91,0-71.83a1.87,1.87,0,0,1,.9-1.84,2,2,0,0,1,.93-.23q18.95,0,37.89,0a2.13,2.13,0,0,1,1.35.56c3.86,3.81,7.69,7.66,11.52,11.51l5.63,5.62a1.85,1.85,0,0,1,.6,1.4c0,5,0,10,0,15.07,0,.44-.17.52-.56.56a25.83,25.83,0,0,0-19.72,39.41c.38.63.81,1.23,1.29,1.94ZM170.36,199A22.48,22.48,0,1,1,192,175.73,22.49,22.49,0,0,1,170.36,199Z"/><path class="cls-4" d="M121.38,150.57h27.1a3.13,3.13,0,0,0,.75-.08,1.69,1.69,0,0,0,1.08-2.37,1.81,1.81,0,0,0-1.79-1H122c-.3,0-.61,0-.92,0a1.68,1.68,0,0,0-1.42,2.48A1.76,1.76,0,0,0,121.38,150.57Z"/><path class="cls-4" d="M141.82,157.53H121.17a1.88,1.88,0,0,0-.92.26,1.68,1.68,0,0,0,1,3.12h20.59a1.66,1.66,0,0,0,1.78-1.64A1.69,1.69,0,0,0,141.82,157.53Z"/><path class="cls-4" d="M138.19,167.9c-5.63,0-11.25,0-16.87,0a2.44,2.44,0,0,0-.38,0,1.68,1.68,0,0,0-1.36,2.37,1.73,1.73,0,0,0,1.79,1H134c1.45,0,2.89,0,4.34,0a1.71,1.71,0,1,0-.1-3.41Z"/><path class="cls-4" d="M147.12,119.82v16.89H164Z"/></svg>