<svg id="Capa_1" data-name="Capa 1" xmlns="http://www.w3.org/2000/svg" xmlns:xlink="http://www.w3.org/1999/xlink" viewBox="0 0 300 350"><defs><style>.cls-1{fill:url(#Degradado_sin_nombre_26);}.cls-2{fill:url(#Degradado_sin_nombre_26-2);}.cls-3{fill:#fff;}</style><linearGradient id="Degradado_sin_nombre_26" x1="553" y1="263" x2="878" y2="-62" gradientTransform="matrix(-1, 0, 0, 1, 940.5, 0)" gradientUnits="userSpaceOnUse"><stop offset="0" stop-color="#f7691e"/><stop offset="1" stop-color="#fbb03b"/></linearGradient><linearGradient id="Degradado_sin_nombre_26-2" x1="-845.5" y1="398.5" x2="-520.5" y2="73.5" gradientTransform="matrix(1, 0, 0, -1, 758.5, 486)" xlink:href="#Degradado_sin_nombre_26"/></defs><title>buscayencuentra</title><polygon class="cls-1" points="300 0.5 0 0.5 300 350.5 300 0.5"/><polygon class="cls-2" points="0.5 350 300.5 350 0.5 0 0.5 350"/><path class="cls-3" d="M178.67,102.49c-2.09,0-3.27,0-3.27,0v31.86H271S267.36,118,239.13,109.8c-23.09-6.7-51.06-7.31-60.46-7.31Z"/><path class="cls-3" d="M110.14,216.32a18.8,18.8,0,1,0,12.21,4.55,18.69,18.69,0,0,0-12.21-4.55Z"/><path class="cls-3" d="M66.31,216.32a18.8,18.8,0,1,0,12.21,4.55,18.72,18.72,0,0,0-12.21-4.55Z"/><path class="cls-3" d="M198.53,216.32a18.8,18.8,0,1,0,12.21,4.55,18.67,18.67,0,0,0-12.21-4.55Z"/><path class="cls-3" d="M28.67,203.68,28,220.87H49a22.38,22.38,0,0,1,34.61,0h9.23a22.37,22.37,0,0,1,34.6,0h53.79a22.37,22.37,0,0,1,39,8.91l10.67,13.86H271V228.16H233.67l-19.12-23.67-185.88-.81Z"/><path class="cls-3" d="M271,141.82H175.4v56.29h43.71l17.29,22.76H271V141.82ZM237.31,179V146.22h31V179Zm-20.94,0V146.22h17.3V179Zm39.15,38.24v-4.55h12.75v4.55Z"/><rect class="cls-3" x="61.43" y="138.93" width="24.82" height="24.82"/><rect class="cls-3" x="90.09" y="138.93" width="24.82" height="24.82"/><rect class="cls-3" x="61.43" y="167.74" width="24.82" height="24.82"/><rect class="cls-3" x="90.09" y="167.74" width="24.82" height="24.82"/><path class="cls-3" d="M96.92,107.14c0-4.55-4-8.23-8.87-8.23s-8.87,3.68-8.87,8.23c0,1.71,8.87,20.79,8.87,20.79s8.87-19.08,8.87-20.79m-8.87-3.3a3.3,3.3,0,1,1-3.55,3.3,3.43,3.43,0,0,1,3.55-3.3"/></svg>