<svg id="Capa_1" data-name="Capa 1" xmlns="http://www.w3.org/2000/svg" viewBox="0 0 2048 2048"><defs><style>.cls-1{fill:#fff;}.cls-2{fill:#bcbcbc;}</style></defs><title>LOGOTIPO_enfa_BLANCO_0509018</title><path class="cls-1" d="M392,556v97.61H538.38v97H392v97.62H586.53v97H295V459H586.53v97Z"/><path class="cls-1" d="M975.68,507.15v438h-97V556H781.1V945.1h-97V459H927.53a47.33,47.33,0,0,1,48.15,48.15Z"/><path class="cls-1" d="M1170.25,945.1h-97V459h291.53v97H1170.25v97.61h146.42v97H1170.25V945.1Z"/><path class="cls-1" d="M1754,945.1h-97V750.53H1559.4V945.1h-97V507.15q0-19.78,14.51-34.3Q1490.8,459,1511.25,459h194.57A47.31,47.31,0,0,1,1754,507.15Zm-97-291.53V556H1559.4v97.61Z"/><path class="cls-2" d="M361.8,1164.59a60.21,60.21,0,0,1,44.19,18.3q18.3,18.3,18.3,44v112.29a62.48,62.48,0,0,1-62.49,62.49H311.34a15.2,15.2,0,0,1-15.5-15.5V1179.92a15.16,15.16,0,0,1,4.45-10.88,15.35,15.35,0,0,1,11-4.45Zm31.66,62.33a31.82,31.82,0,0,0-31.66-31.5H326.68v175.45H361.8a31.82,31.82,0,0,0,31.66-31.66Z"/><path class="cls-2" d="M600.37,1370.87a15.48,15.48,0,0,1,15.5,15.33,15.06,15.06,0,0,1-4.62,11,14.8,14.8,0,0,1-10.88,4.45H519.08a15.2,15.2,0,0,1-15.5-15.5V1179.92A15.16,15.16,0,0,1,508,1169a15.33,15.33,0,0,1,11.05-4.45h81.29a15.48,15.48,0,0,1,15.5,15.33,15.76,15.76,0,0,1-15.5,15.5h-66v64h56.06a15.39,15.39,0,0,1,11,4.45,15.54,15.54,0,0,1,0,21.77,15.07,15.07,0,0,1-11,4.62H534.41v80.63Z"/><path class="cls-2" d="M799.69,1370.87a15.48,15.48,0,0,1,15.5,15.33,15.06,15.06,0,0,1-4.62,11,14.77,14.77,0,0,1-10.88,4.45h-89a15.2,15.2,0,0,1-15.5-15.5V1177.12a14.79,14.79,0,0,1,4.45-10.88,15.07,15.07,0,0,1,11-4.62,15.5,15.5,0,0,1,15.34,15.5v193.75Z"/><path class="cls-2" d="M894,1397.25a15.33,15.33,0,0,1-4.45-11v-212a14.8,14.8,0,0,1,4.45-10.88,15.35,15.35,0,0,1,11-4.45,15.16,15.16,0,0,1,10.88,4.45,14.8,14.8,0,0,1,4.45,10.88v212a15.33,15.33,0,0,1-4.45,11A15.16,15.16,0,0,1,905,1401.7,15.35,15.35,0,0,1,894,1397.25Z"/><path class="cls-2" d="M1138.65,1159a16.41,16.41,0,0,1,9.57,7.75,15.7,15.7,0,0,1,1.15,12.37L1087,1389a15.13,15.13,0,0,1-11,12,15.75,15.75,0,0,1-12.2-1.31,15,15,0,0,1-7.75-9.57l-62.83-211.23a15.67,15.67,0,0,1,1.33-12.2,15,15,0,0,1,9.56-7.75,15.21,15.21,0,0,1,12.2,1.16,15.56,15.56,0,0,1,7.75,9.56l47.33,159.12,47.15-159a15.71,15.71,0,0,1,7.75-9.57A16.18,16.18,0,0,1,1138.65,1159Z"/><path class="cls-2" d="M1319.18,1370.87a15.48,15.48,0,0,1,15.5,15.33,15.06,15.06,0,0,1-4.62,11,14.8,14.8,0,0,1-10.88,4.45h-81.3a15.2,15.2,0,0,1-15.49-15.5V1179.92a15.16,15.16,0,0,1,4.45-10.88,15.33,15.33,0,0,1,11-4.45h81.3a15.48,15.48,0,0,1,15.5,15.33,15.76,15.76,0,0,1-15.5,15.5h-66v64h56.06a15.39,15.39,0,0,1,11,4.45,15.54,15.54,0,0,1,0,21.77,15.07,15.07,0,0,1-11,4.62h-56.06v80.63Z"/><path class="cls-2" d="M1542.41,1224.77q0,28.37-21.6,47,21.6,18.8,21.6,47v67.44a15.06,15.06,0,0,1-4.62,11,15.53,15.53,0,0,1-21.76,0,15.33,15.33,0,0,1-4.45-11v-67.44a31.81,31.81,0,0,0-31.66-31.49H1444.8v98.93a15.34,15.34,0,0,1-4.46,11,15.14,15.14,0,0,1-10.88,4.45,15.2,15.2,0,0,1-15.5-15.5V1176.79a14.79,14.79,0,0,1,4.45-10.88,15.35,15.35,0,0,1,11-4.45h50.46a60.21,60.21,0,0,1,44.19,18.3q18.3,18.3,18.3,44Zm-97.61,31.66h35.12a31.8,31.8,0,0,0,31.66-31.66v-1a31.81,31.81,0,0,0-31.66-31.49H1444.8Z"/><path class="cls-2" d="M1745.2,1160.47a15.48,15.48,0,0,1,6.59,20.77L1698.7,1283V1386.2a15.2,15.2,0,0,1-15.5,15.5,15.13,15.13,0,0,1-10.88-4.45,15.34,15.34,0,0,1-4.46-11V1283l-53.09-101.74a15.38,15.38,0,0,1,18.3-21.76,15.2,15.2,0,0,1,9.07,7.58l41.06,78.82,41.22-78.82a15.2,15.2,0,0,1,9.07-7.58A14.5,14.5,0,0,1,1745.2,1160.47Z"/><polygon class="cls-1" points="1023.85 1588.96 345.94 1537.06 1701.76 1537.06 1023.85 1588.96"/></svg>