<svg id="Capa_1" data-name="Capa 1" xmlns="http://www.w3.org/2000/svg" xmlns:xlink="http://www.w3.org/1999/xlink" viewBox="0 0 300 350"><defs><style>.cls-1{fill:url(#Degradado_sin_nombre_26);}.cls-2{fill:url(#Degradado_sin_nombre_26-2);}.cls-3{fill:#fff;}</style><linearGradient id="Degradado_sin_nombre_26" x1="-725" y1="263" x2="-400" y2="-62" gradientTransform="matrix(-1, 0, 0, 1, -337.5, 0)" gradientUnits="userSpaceOnUse"><stop offset="0" stop-color="#f7691e"/><stop offset="1" stop-color="#fbb03b"/></linearGradient><linearGradient id="Degradado_sin_nombre_26-2" x1="-845.5" y1="398.5" x2="-520.5" y2="73.5" gradientTransform="matrix(1, 0, 0, -1, 758.5, 486)" xlink:href="#Degradado_sin_nombre_26"/></defs><title>buscayencuentra</title><polygon class="cls-1" points="300 0.5 0 0.5 300 350.5 300 0.5"/><polygon class="cls-2" points="0.5 350 300.5 350 0.5 0 0.5 350"/><path class="cls-3" d="M154.77,108.56c5.35,1.26,10.86,2.09,16,3.85,32.32,11,50.83,46.85,41.38,79.6-.74,2.54-1.61,3.21-4.16,2.29a71.17,71.17,0,0,0-9.67-2.63c-2.61-.54-3-1.62-2.34-4.17a49.06,49.06,0,0,0-31.74-59.71c-26.73-8.86-56.15,7.3-62.79,34.5-6.75,27.65,11.2,55.48,38.93,60a77.37,77.37,0,0,0,14.37.47c2.27-.06,3.22.64,3.71,2.71.78,3.36,1.54,6.73,2.65,10,.87,2.54,0,3.45-2.4,3.79-15.6,2.25-30.28-.5-43.65-8.81-21.42-13.3-31.9-33-31.83-58,.1-32.06,26.29-60.18,58.42-63.39a9.26,9.26,0,0,0,1.75-.53Z"/><path class="cls-3" d="M199.4,250c-4-3.71-7.93-7.4-11.84-11.14-1.43-1.37-2.73-2.87-4.73-5-1.72,2-3.1,3.83-4.7,5.43-4,4-8,3.07-9.55-2.44-2.87-10.14-5.49-20.34-8.2-30.52-.86-3.22-1.75-6.44-2.56-9.67-1.34-5.42,1.59-8.34,7.06-6.9,9.58,2.52,19.13,5.14,28.7,7.71,3.72,1,7.46,1.95,11.19,3,5.33,1.46,6.52,5.64,2.67,9.55-1.61,1.63-3.4,3.07-5.29,4.76,4.71,4.69,9,8.94,13.29,13.22,3.39,3.4,3.42,6,0,9.37-4.28,4.26-8.63,8.44-12.94,12.66Z"/><path class="cls-3" d="M132.72,161.18c.26-5,3.29-9.82,9.07-12.76,1.61-.82,2.32-1.58,2.3-3.45,0-3.15,1.88-5,4.73-5.11a4.68,4.68,0,0,1,5.11,4.77c.08,2,.95,2.77,2.61,3.57,5.3,2.58,8.16,7,8.77,12.84.34,3.24-1.67,5.8-4.54,6s-5-1.53-5.4-4.79c-.51-3.75-2.7-5.79-6.18-5.73a6.72,6.72,0,0,0-6.42,5.78c-.3,3.31,1.75,5.95,5.2,6.78,3,.72,6.39.89,8.91,2.44,2.7,1.66,4.91,4.43,6.74,7.12,1.71,2.52,1,3.42-2,3.84a8.19,8.19,0,0,0-2.47.38c-2.4,1.21-3.92.92-5.75-1.42-1.12-1.44-3.78-2-5.84-2.29C138.93,178.17,132.68,171.4,132.72,161.18Z"/><path class="cls-3" d="M132.72,187c0-3.14,1.68-5.25,4.38-5.54a4.78,4.78,0,0,1,5.53,4.69c.31,3.54,2.16,5.34,5.47,5.75,1.65.2,2.21.83,2.43,2.53a79.6,79.6,0,0,0,1.95,8.86c.89,3.5.4,4.75-2.27,5.29-2.94.59-6-1.12-6-4,0-2.52-1-3.49-3.17-4.51A14.94,14.94,0,0,1,132.72,187Z"/></svg>